<svg xmlns="http://www.w3.org/2000/svg" viewBox="0 0 583.65 84.42"><defs><style>.cls-1{fill:#ed1c24;}.cls-1,.cls-2{fill-rule:evenodd;}.cls-2{fill:#231f20;}</style></defs><g id="Layer_2" data-name="Layer 2"><g id="Layer_1-2" data-name="Layer 1"><polygon class="cls-1" points="0.06 60.31 24.25 84.42 60.17 84.42 84.45 60.31 84.42 24.25 60.17 0 24.25 0 24.25 60.13 60.26 60.13 60.26 24.23 37.19 24.23 37.19 30.76 53.74 30.76 53.74 53.66 30.74 53.68 30.74 17.73 66.76 17.73 66.76 66.53 17.74 66.53 17.74 6.51 17.74 6.51 0 24.25 0.06 60.31"/><path class="cls-2" d="M579.56,11.37,580,31h-1.78A20.13,20.13,0,0,0,572,19.16a15.64,15.64,0,0,0-10.69-4.49,10,10,0,0,0-7,2.36,7.2,7.2,0,0,0-2.59,5.46,6.58,6.58,0,0,0,.91,3.47,14.73,14.73,0,0,0,4,4,90.91,90.91,0,0,0,9.44,5.09q10.36,5.08,14,9.6A16.19,16.19,0,0,1,583.65,55a16.73,16.73,0,0,1-5.76,12.71q-5.77,5.31-14.65,5.32a23.37,23.37,0,0,1-5.26-.57,39.43,39.43,0,0,1-6.23-2.13,9.58,9.58,0,0,0-3.44-.86,4.26,4.26,0,0,0-2.39.87,6.22,6.22,0,0,0-2,2.69h-1.51V50.8h1.51q1.92,9.38,7.38,14.29A17.28,17.28,0,0,0,563,70a11,11,0,0,0,7.77-2.65,8,8,0,0,0,1.79-10.21,13,13,0,0,0-3.38-3.72,50.47,50.47,0,0,0-8-4.58,67.79,67.79,0,0,1-11.56-6.74,20.49,20.49,0,0,1-5.39-6.22,15.42,15.42,0,0,1-1.89-7.56,16.06,16.06,0,0,1,5.17-12,18.13,18.13,0,0,1,13.05-5,22.35,22.35,0,0,1,5.56.69,28.91,28.91,0,0,1,5,1.92,11.79,11.79,0,0,0,4.11,1.4,2.34,2.34,0,0,0,1.78-.69,8,8,0,0,0,1.22-3.32Z"/><path class="cls-2" d="M510.33,55.47H489.7l-2.57,5.75a13.14,13.14,0,0,0-1.22,4.8,4,4,0,0,0,2,3.7q1.17.7,5.78,1.06v1.51h-19.6V70.78a8.77,8.77,0,0,0,5.22-2.66q2-2.18,5-9l21-47h.83L527.5,60.44q3,6.94,5,8.75a6.82,6.82,0,0,0,4.18,1.59v1.51H508.16V70.78h1.17c2.29,0,3.9-.33,4.83-1a2.37,2.37,0,0,0,1-2,5.28,5.28,0,0,0-.26-1.63c-.06-.27-.49-1.37-1.3-3.31l-3.22-7.36Zm-1.4-3.2-8.79-20.1-9,20.1Z"/><path class="cls-2" d="M431.85,51.61,448,12.71h23.86v1.51h-1.9a8.13,8.13,0,0,0-4.17.93A4.34,4.34,0,0,0,464,17.23c-.32.71-.47,2.55-.47,5.54V61.65c0,3,.15,4.94.47,5.7a4.36,4.36,0,0,0,2,2,7.85,7.85,0,0,0,3.95.86h1.9v1.51h-30.7V70.2H443a8.19,8.19,0,0,0,4.16-.92,4.24,4.24,0,0,0,1.73-2.11q.48-1,.48-5.52V18L426.73,71.71h-1l-23-53.33V59.87a37.68,37.68,0,0,0,.22,5.38,6.27,6.27,0,0,0,2.46,3.57c1.27.92,3.25,1.38,6,1.38v1.51H391.15V70.2h.62a9.21,9.21,0,0,0,3.65-.64A5.82,5.82,0,0,0,398,67.74a8.43,8.43,0,0,0,1.35-3.21c.06-.32.09-1.81.09-4.48V22.77q0-4.56-.48-5.69a4.34,4.34,0,0,0-2-2,7.78,7.78,0,0,0-4-.87h-1.88V12.71h24.06Z"/><path class="cls-2" d="M335,35.35l20.66,26q4.39,5.52,7.57,7.48a9.21,9.21,0,0,0,4.86,1.4v1.51H337.44V70.2a8.17,8.17,0,0,0,3.76-.93,2,2,0,0,0,.85-1.62q0-1.84-4-7l-13.49-17-2.21,1.78V61.65q0,4.65.52,5.79a4.42,4.42,0,0,0,2,2,10.46,10.46,0,0,0,4.76.81v1.51H299.92V70.2h1.95a8.11,8.11,0,0,0,4.12-.92,4,4,0,0,0,1.73-2.11q.48-1,.48-5.52V22.77q0-4.56-.48-5.7a4.36,4.36,0,0,0-1.93-2,7.7,7.7,0,0,0-3.92-.86h-1.95V12.71H329.2v1.51a9.38,9.38,0,0,0-4.55.88,4.11,4.11,0,0,0-1.78,2.06q-.53,1.1-.52,5.61v18.4l21.93-17.65q4.56-3.76,4.56-6A3,3,0,0,0,347,14.84a14.91,14.91,0,0,0-4.74-.62V12.71h22.95v1.51a12.67,12.67,0,0,0-4.84,1.13,67,67,0,0,0-8.11,6.11Z"/><path class="cls-2" d="M255.7,12.71l29.05,36.55V23.92q0-5.35-1.52-7.24-2.1-2.55-7-2.46V12.71H295.7v1.51a14.71,14.71,0,0,0-5,1.25,5.06,5.06,0,0,0-2,2.51,17.39,17.39,0,0,0-.71,5.94V73.05h-1.48L246.66,23.86V61.48c0,3.42.78,5.72,2.34,6.92a8.51,8.51,0,0,0,5.35,1.8h1.39v1.51h-21V70.2c3.26,0,5.52-.7,6.8-2s1.92-3.55,1.92-6.7V19.75l-1.23-1.53a11.48,11.48,0,0,0-3.31-3.15,9.62,9.62,0,0,0-4.12-.85V12.71Z"/><path class="cls-2" d="M206.18,55.47H185.55L183,61.22a12.94,12.94,0,0,0-1.22,4.8,4,4,0,0,0,2,3.7q1.17.7,5.78,1.06v1.51h-19.6V70.78a8.8,8.8,0,0,0,5.22-2.66q2-2.18,5-9l21.05-47h.83l21.26,48.31q3,6.94,5,8.75a6.82,6.82,0,0,0,4.17,1.59v1.51H204V70.78h1.17c2.29,0,3.9-.33,4.83-1a2.37,2.37,0,0,0,1-2,5.59,5.59,0,0,0-.26-1.63c-.06-.27-.49-1.37-1.3-3.31l-3.22-7.36Zm-1.4-3.2L196,32.17l-9,20.1Z"/><path class="cls-2" d="M149.42,40.4q8.43,2,11.85,4.75a12.6,12.6,0,0,1,4.89,10.27,13.59,13.59,0,0,1-5.35,11q-6.56,5.27-19.08,5.27h-30V70.2q4.1,0,5.55-.77a4.45,4.45,0,0,0,2.05-2q.59-1.23.59-6V23c0-3.21-.2-5.24-.59-6.07a4.27,4.27,0,0,0-2.07-2c-1-.5-2.83-.75-5.53-.75V12.71h28.28q10.13,0,14.35,1.8a15.05,15.05,0,0,1,6.66,5.39,13.38,13.38,0,0,1,2.43,7.63,10.83,10.83,0,0,1-3.11,7.59c-2.08,2.21-5.73,4-11,5.28Zm-15.84-1.17c4.15,0,7.22-.47,9.19-1.39a10.5,10.5,0,0,0,4.55-3.92,12,12,0,0,0,1.58-6.44,12,12,0,0,0-1.56-6.41,9.89,9.89,0,0,0-4.46-3.81Q140,16,133.58,16V39.23Zm0,3.38V63.68a4.84,4.84,0,0,0,1.17,3.54,4.67,4.67,0,0,0,3.48,1.2,13.18,13.18,0,0,0,6.31-1.54A10.45,10.45,0,0,0,149,62.42a13.73,13.73,0,0,0,1.54-6.52,15.7,15.7,0,0,0-1.72-7.39,9.6,9.6,0,0,0-5.11-4.61C141.42,43,138.05,42.58,133.58,42.61Z"/></g></g></svg>